<svg version="1.0" xmlns="http://www.w3.org/2000/svg"
 viewBox="0 0 404.000000 304.000000">

<g transform="translate(0.000000,304.000000) scale(0.100000,-0.100000)">
<path d="M950 2983 c-41 -15 -40 23 -40 -1462 0 -784 4 -1431 8 -1437 22 -33
44 -34 1059 -34 897 0 1011 2 1031 16 l22 15 0 1439 0 1439 -22 15 c-20 14
-134 16 -1033 15 -555 0 -1017 -3 -1025 -6z m1990 -1463 l0 -1370 -965 0 -965
0 0 1370 0 1370 965 0 965 0 0 -1370z"/>
<path d="M1092 2808 c-17 -17 -17 -2559 0 -2576 17 -17 1749 -17 1766 0 17 17
17 2559 0 2576 -17 17 -1749 17 -1766 0z m1686 -1285 l2 -1203 -805 0 -805 0
0 1198 c0 659 3 1202 7 1205 3 4 365 6 802 5 l796 -3 3 -1202z"/>
<path d="M1307 1644 c-4 -4 -7 -81 -7 -171 l0 -163 55 0 55 0 -2 168 -3 167
-45 3 c-25 2 -49 0 -53 -4z"/>
<path d="M2315 840 l-219 -219 29 -31 c16 -16 32 -30 35 -30 9 0 440 431 440
440 0 7 -53 60 -61 60 -2 0 -103 -99 -224 -220z"/>
<path d="M2452 707 c-50 -51 -92 -97 -92 -103 0 -6 13 -23 29 -38 l29 -28 87
83 c111 107 114 113 79 150 -15 16 -30 29 -34 29 -3 0 -47 -42 -98 -93z"/>
</g>
</svg>
