<svg version="1.0" xmlns="http://www.w3.org/2000/svg"
 viewBox="0 0 404.000000 304.000000">

<g transform="translate(0.000000,304.000000) scale(0.100000,-0.100000)">
<path d="M425 2923 c-47 -11 -45 42 -45 -1403 0 -1164 2 -1369 14 -1386 14
-19 42 -19 1626 -19 1584 0 1612 0 1626 19 21 30 21 2742 0 2772 -14 19 -43
19 -1608 20 -876 1 -1602 0 -1613 -3z m3125 -1403 l0 -1300 -1530 0 -1530 0 0
1300 0 1300 1530 0 1530 0 0 -1300z"/>
<path d="M634 2726 c-19 -14 -19 -38 -19 -1206 0 -1168 0 -1192 19 -1206 17
-12 123 -14 657 -14 566 0 639 2 653 16 14 14 16 137 16 1203 0 1138 -1 1189
-18 1204 -17 15 -77 17 -653 17 -533 0 -638 -2 -655 -14z m1216 -1206 l0
-1110 -565 0 -565 0 0 1110 0 1110 565 0 565 0 0 -1110z"/>
<path d="M1650 1520 l0 -161 53 3 52 3 0 155 0 155 -52 3 -53 3 0 -161z"/>
<path d="M1470 825 l-185 -185 38 -37 37 -38 187 187 187 187 -34 36 c-19 19
-36 35 -40 35 -3 0 -88 -83 -190 -185z"/>
<path d="M1640 665 l-85 -85 38 -37 37 -38 87 87 87 88 -34 35 c-19 19 -37 35
-40 35 -3 0 -44 -38 -90 -85z"/>
<path d="M2096 2724 c-14 -14 -16 -137 -16 -1203 0 -1138 1 -1189 18 -1204 17
-15 77 -17 653 -17 533 0 638 2 655 14 19 14 19 38 19 1206 0 1168 0 1192 -19
1206 -17 12 -123 14 -657 14 -566 0 -639 -2 -653 -16z m1224 -1204 l0 -1110
-565 0 -565 0 0 1110 0 1110 565 0 565 0 0 -1110z"/>
<path d="M2284 1667 c-2 -7 -3 -78 -2 -157 l3 -145 53 -3 52 -3 0 160 0 161
-50 0 c-32 0 -52 -5 -56 -13z"/>
<path d="M2900 825 l-185 -185 38 -37 37 -38 187 187 187 187 -34 36 c-19 19
-36 35 -40 35 -3 0 -88 -83 -190 -185z"/>
<path d="M3070 665 l-85 -85 38 -37 37 -38 85 85 c47 46 85 90 85 96 0 11 -58
64 -70 64 -3 0 -44 -38 -90 -85z"/>
</g>
</svg>
