<svg version="1.0" xmlns="http://www.w3.org/2000/svg"
viewBox="0 0 404.000000 304.000000">

<g transform="translate(0.000000,304.000000) scale(0.100000,-0.100000)">
<path d="M85 2895 l-25 -24 0 -1351 0 -1351 25 -24 24 -25 1911 0 1911 0 24
25 25 24 0 1351 0 1351 -25 24 -24 25 -1911 0 -1911 0 -24 -25z m3805 -1375
l0 -1300 -1870 0 -1870 0 0 1300 0 1300 1870 0 1870 0 0 -1300z"/>
<path d="M271 2694 c-21 -27 -21 -28 -21 -1174 0 -1146 0 -1147 21 -1174 l20
-26 1729 0 1729 0 20 26 c21 27 21 28 21 1174 0 1146 0 1147 -21 1174 l-20 26
-1729 0 -1729 0 -20 -26z m1119 -1174 l0 -1110 -520 0 -520 0 0 1110 0 1110
520 0 520 0 0 -1110z m1150 0 l0 -1110 -530 0 -530 0 0 1110 0 1110 530 0 530
0 0 -1110z m1150 0 l0 -1110 -530 0 -530 0 0 1110 0 1110 530 0 530 0 0 -1110z"/>
<path d="M588 2417 l-68 -62 25 -28 25 -28 65 58 c36 32 65 63 65 69 0 6 -10
20 -22 31 l-23 21 -67 -61z"/>
<path d="M710 2293 c-240 -222 -225 -206 -205 -237 21 -32 25 -32 61 0 209
190 351 329 347 340 -2 7 -14 19 -26 27 -21 13 -30 7 -177 -130z"/>
<path d="M1227 1633 c-4 -3 -7 -73 -7 -155 l0 -148 50 0 50 0 0 155 0 155 -43
0 c-24 0 -47 -3 -50 -7z"/>
<path d="M2350 1486 l0 -156 50 0 51 0 -3 153 -3 152 -47 3 -48 3 0 -155z"/>
<path d="M2700 1486 l0 -156 50 0 51 0 -3 153 -3 152 -47 3 -48 3 0 -155z"/>
</g>
</svg>
