<svg version="1.0" xmlns="http://www.w3.org/2000/svg"
viewBox="0 0 404.000000 304.000000">

<g transform="translate(0.000000,304.000000) scale(0.100000,-0.100000)">
<path d="M736 3024 c-14 -14 -16 -119 -16 -1008 0 -949 1 -994 18 -1009 17
-15 67 -17 520 -17 l502 0 0 -483 c0 -362 3 -486 12 -495 16 -16 1489 -17
1519 -2 19 11 19 38 19 1508 0 1152 -3 1501 -12 1510 -9 9 -307 12 -1279 12
-1139 0 -1269 -2 -1283 -16z m2504 -1504 l0 -1440 -35 0 -35 0 0 1408 c0 1082
-3 1411 -12 1420 -17 17 -1219 17 -1236 0 -9 -9 -12 -338 -12 -1420 l0 -1408
-40 0 -40 0 0 483 c0 362 -3 486 -12 495 -9 9 -137 12 -515 12 l-503 0 0 945
0 945 1220 0 1220 0 0 -1440z m-140 -55 l0 -1385 -560 0 -560 0 0 1385 0 1385
560 0 560 0 0 -1385z"/>
<path d="M882 2908 c-17 -17 -17 -1759 0 -1776 9 -9 126 -12 464 -12 l453 0
15 22 c14 20 16 120 16 878 0 758 -2 858 -16 878 l-15 22 -453 0 c-338 0 -455
-3 -464 -12z m868 -888 l0 -830 -405 0 -405 0 0 830 0 830 405 0 405 0 0 -830z"/>
<path d="M1085 2661 c-57 -55 -60 -60 -47 -80 8 -11 19 -21 25 -21 5 0 38 25
73 56 63 54 63 56 48 80 -9 13 -21 24 -28 24 -6 0 -38 -27 -71 -59z"/>
<path d="M1234 2607 c-43 -39 -112 -104 -152 -142 l-73 -70 23 -22 23 -22 148
136 c81 74 147 140 147 147 0 7 -8 20 -18 29 -17 16 -23 13 -98 -56z"/>
<path d="M2112 1638 c-19 -19 -17 -442 2 -457 9 -8 45 -11 98 -9 l83 3 3 103
3 102 -30 0 -30 0 -3 -72 -3 -73 -32 -3 -33 -3 0 175 0 176 31 0 c22 0 32 -5
36 -20 4 -14 14 -20 34 -20 27 0 29 2 29 43 0 24 -5 48 -12 55 -7 7 -42 12
-88 12 -46 0 -81 -5 -88 -12z"/>
<path d="M2202 1463 l3 -38 133 -3 132 -3 0 41 0 40 -136 0 -135 0 3 -37z"/>
</g>
</svg>
