<svg version="1.0" xmlns="http://www.w3.org/2000/svg" viewBox="0 0 101.000000 76.000000">

<g transform="translate(0.000000,76.000000) scale(0.100000,-0.100000)">
<path d="M190 730 c0 -11 9 -29 20 -40 19 -19 20 -33 20 -310 0 -277 -1 -291
-20 -310 -11 -11 -20 -29 -20 -40 0 -20 7 -20 315 -20 308 0 315 0 315 20 0
11 -9 29 -20 40 -19 19 -20 33 -20 310 0 277 1 291 20 310 11 11 20 29 20 40
0 20 -7 20 -315 20 -308 0 -315 0 -315 -20z m604 -15 c-9 -23 -569 -23 -578 0
-5 13 31 15 289 15 258 0 294 -2 289 -15z m-304 -335 l0 -300 -120 0 -120 0 0
300 0 300 120 0 120 0 0 -300z m270 0 l0 -300 -120 0 -120 0 0 300 0 300 120
0 120 0 0 -300z m34 -335 c5 -13 -31 -15 -289 -15 -258 0 -294 2 -289 15 9 23
569 23 578 0z"/>
<path d="M617 643 c-8 -12 92 -135 104 -127 10 6 -8 33 -64 98 -19 21 -37 34
-40 29z"/>
<path d="M680 627 c0 -18 36 -51 43 -40 5 8 -26 53 -37 53 -3 0 -6 -6 -6 -13z"/>
</g>
</svg>
