<svg version="1.0" xmlns="http://www.w3.org/2000/svg"
viewBox="0 0 404.000000 304.000000">

<g transform="translate(0.000000,304.000000) scale(0.100000,-0.100000)">
<path d="M687 2400 c-105 -18 -221 -100 -266 -189 -51 -99 -70 -281 -33 -314
24 -22 56 -22 73 0 9 10 16 52 19 112 7 114 32 176 95 226 83 66 71 65 643 65
598 0 581 2 669 -85 82 -83 83 -90 83 -545 0 -287 3 -389 12 -398 16 -16 63
-15 76 1 8 9 12 146 14 412 3 397 3 400 27 453 14 30 43 69 68 92 81 71 75 70
652 70 589 0 579 1 662 -80 57 -57 79 -117 79 -220 0 -85 16 -120 55 -120 49
0 58 24 53 137 -4 97 -8 109 -44 181 -45 89 -108 146 -201 183 -58 24 -60 24
-562 27 -291 2 -530 -1 -565 -6 -89 -14 -153 -48 -218 -114 l-58 -59 -57 59
c-65 65 -129 99 -212 113 -68 11 -997 10 -1064 -1z"/>
<path d="M862 2018 c-18 -18 -15 -52 8 -80 19 -25 19 -26 0 -43 -38 -34 -16
-95 34 -95 13 0 31 9 41 20 17 19 18 19 43 0 28 -23 62 -26 80 -8 19 19 14 63
-8 83 l-20 18 20 22 c22 24 26 65 8 83 -17 17 -63 15 -78 -3 -7 -8 -18 -15
-25 -15 -7 0 -18 7 -25 15 -15 18 -61 20 -78 3z"/>
<path d="M1370 2011 c-14 -28 -12 -42 9 -71 19 -24 19 -25 0 -48 -24 -31 -24
-54 -1 -75 25 -23 51 -21 78 4 l23 21 22 -21 c31 -28 65 -27 85 4 15 23 15 27
-6 60 -21 34 -21 37 -5 55 21 23 23 69 4 81 -22 14 -65 10 -79 -6 -7 -8 -17
-15 -22 -15 -5 0 -16 7 -24 15 -22 22 -71 19 -84 -4z"/>
<path d="M2464 2022 c-23 -15 -25 -48 -3 -75 l21 -27 -22 -35 c-21 -33 -21
-37 -6 -60 20 -31 52 -32 83 -3 l23 21 23 -21 c28 -27 58 -28 80 -4 22 24 21
44 -3 75 -20 25 -20 25 2 52 17 22 19 32 12 54 -11 31 -62 41 -87 17 -20 -20
-31 -20 -47 -1 -13 16 -57 20 -76 7z"/>
<path d="M2972 2018 c-19 -19 -14 -63 8 -83 l20 -18 -20 -22 c-56 -60 8 -126
72 -75 25 19 26 19 43 0 34 -38 95 -16 95 34 0 13 -9 31 -20 41 -19 17 -19 18
0 43 23 28 26 62 8 80 -17 17 -63 15 -78 -3 -7 -8 -18 -15 -25 -15 -7 0 -18 7
-25 15 -15 18 -61 20 -78 3z"/>
<path d="M304 1782 c-88 -31 -167 -104 -207 -190 -30 -67 -30 -207 1 -275 23
-52 103 -143 133 -152 18 -6 19 -19 19 -200 0 -107 5 -217 11 -244 19 -91 110
-185 191 -198 52 -8 62 -20 88 -100 35 -107 27 -103 220 -103 122 0 170 3 177
13 6 6 23 49 39 95 l29 82 1015 -2 1015 -3 28 -79 c15 -44 32 -85 38 -93 9
-10 52 -13 180 -13 194 0 181 -7 220 112 25 74 25 74 107 99 58 17 120 73 148
133 23 49 24 61 24 263 0 158 3 215 12 222 155 121 207 253 159 409 -63 208
-306 304 -497 196 -53 -30 -120 -103 -147 -162 -19 -41 -22 -68 -25 -229 l-4
-183 -1258 0 -1258 0 -4 183 c-3 178 -4 183 -32 240 -35 69 -109 140 -174 169
-65 29 -180 34 -248 10z m212 -112 c48 -20 86 -59 117 -115 20 -37 22 -57 25
-245 3 -169 6 -208 19 -222 15 -17 92 -18 1342 -18 1166 1 1328 2 1346 16 19
14 20 30 25 232 5 238 8 248 72 309 108 104 287 81 364 -46 18 -28 35 -70 38
-94 14 -90 -48 -203 -135 -247 -20 -11 -39 -26 -43 -35 -3 -9 -6 -119 -6 -244
0 -220 -1 -229 -22 -261 -13 -18 -36 -43 -51 -54 l-28 -21 -1559 0 -1559 0
-28 21 c-15 11 -38 36 -50 54 -22 32 -23 41 -23 261 0 125 -3 235 -6 244 -4 9
-23 24 -43 35 -83 42 -131 121 -131 215 0 119 77 212 193 234 50 10 88 5 143
-19z m374 -1170 c0 -6 -7 -26 -14 -45 l-15 -35 -105 0 -104 0 -15 45 -16 45
135 0 c85 0 134 -4 134 -10z m2513 -35 l-15 -45 -104 0 c-112 0 -113 1 -128
63 l-6 27 134 0 135 0 -16 -45z"/>
<path d="M1128 1668 c-25 -21 -27 -44 -7 -78 18 -28 18 -34 5 -49 -29 -33 -24
-79 11 -92 22 -8 32 -6 54 10 l28 21 36 -21 c33 -20 37 -20 60 -5 31 20 32 52
4 82 l-21 23 21 27 c26 33 27 56 3 77 -25 22 -44 21 -76 -4 l-27 -21 -23 21
c-25 24 -45 27 -68 9z"/>
<path d="M2717 1662 c-23 -25 -21 -51 5 -79 l21 -23 -21 -23 c-29 -31 -28 -63
3 -83 23 -15 27 -15 60 5 l36 21 28 -21 c22 -16 32 -18 54 -10 22 8 27 17 27
42 0 18 -7 40 -16 50 -14 16 -14 20 1 43 41 62 -17 126 -69 77 l-25 -23 -27
21 c-33 26 -56 27 -77 3z"/>
</g>
</svg>
