<svg version="1.0" xmlns="http://www.w3.org/2000/svg"
viewBox="0 0 404.000000 304.000000">

<g transform="translate(0.000000,304.000000) scale(0.100000,-0.100000)">
<path d="M680 2301 c-73 -23 -138 -79 -164 -143 -20 -48 -23 -327 -4 -346 18
-18 53 -15 71 6 14 15 17 41 17 146 0 145 12 185 64 217 29 18 56 19 378 19
l347 0 35 -31 c20 -17 40 -47 46 -67 6 -22 10 -172 10 -362 0 -348 0 -350 50
-350 50 0 50 1 50 357 0 366 2 377 59 426 l33 27 346 0 c322 0 349 -1 378 -19
62 -38 64 -53 64 -424 0 -364 0 -367 55 -367 53 0 55 16 55 380 0 315 1 337
20 367 37 62 43 63 423 63 l344 0 39 -34 39 -34 5 -149 c5 -159 12 -183 55
-183 12 0 30 9 39 19 26 29 20 299 -8 351 -26 49 -64 88 -111 113 -39 21 -50
22 -400 22 -198 0 -372 -3 -386 -7 -14 -4 -46 -23 -72 -43 l-46 -35 -26 24
c-65 60 -70 61 -442 64 -222 2 -356 -1 -382 -8 -22 -6 -61 -27 -87 -46 l-46
-36 -27 25 c-66 62 -64 62 -446 64 -192 1 -361 -2 -375 -6z"/>
<path d="M731 1884 c-26 -33 -26 -49 -1 -74 24 -24 63 -26 84 -4 24 23 20 70
-6 88 -32 23 -54 20 -77 -10z"/>
<path d="M1002 1894 c-26 -18 -30 -65 -6 -88 21 -22 60 -20 84 4 23 23 24 33
9 63 -22 40 -50 47 -87 21z"/>
<path d="M1260 1890 c-24 -24 -25 -48 -4 -78 30 -43 104 -17 104 36 0 28 -34
62 -60 62 -11 0 -29 -9 -40 -20z"/>
<path d="M1722 1894 c-44 -30 -20 -104 34 -104 26 0 64 32 64 54 0 21 -40 66
-59 66 -9 0 -27 -7 -39 -16z"/>
<path d="M1980 1890 c-24 -24 -25 -48 -4 -78 31 -44 104 -16 104 40 0 24 -35
58 -60 58 -11 0 -29 -9 -40 -20z"/>
<path d="M2244 1885 c-18 -19 -23 -31 -19 -48 21 -69 115 -59 115 13 0 18 -8
34 -22 44 -31 22 -45 20 -74 -9z"/>
<path d="M2700 1890 c-25 -25 -26 -62 -2 -83 39 -35 102 -9 102 41 0 28 -34
62 -60 62 -11 0 -29 -9 -40 -20z"/>
<path d="M2974 1902 c-13 -8 -34 -46 -34 -61 0 -20 40 -51 64 -51 33 0 56 25
56 60 0 42 -53 75 -86 52z"/>
<path d="M3232 1894 c-44 -30 -20 -104 34 -104 28 0 64 32 64 58 0 22 -40 62
-61 62 -8 0 -25 -7 -37 -16z"/>
<path d="M235 1761 c-60 -27 -103 -67 -133 -125 l-27 -51 -3 -258 c-2 -158 1
-278 7 -309 39 -178 181 -305 372 -332 l82 -12 31 -84 c17 -47 35 -91 39 -97
12 -18 360 -18 375 0 5 6 23 50 40 97 l30 85 972 0 973 0 31 -85 c17 -47 35
-91 39 -98 12 -17 362 -17 374 0 4 7 22 51 39 98 l31 84 81 12 c186 26 323
142 367 310 23 87 22 531 -2 603 -62 194 -314 245 -446 90 -52 -60 -67 -119
-67 -261 l0 -118 -1420 0 -1420 0 0 118 c0 142 -15 201 -67 261 -71 84 -203
116 -298 72z m192 -117 c57 -44 63 -65 63 -244 0 -147 2 -162 20 -180 20 -20
33 -20 1508 -20 1268 0 1491 2 1508 14 17 13 19 31 24 189 5 158 7 178 26 204
53 71 153 89 218 39 69 -53 71 -60 71 -352 l0 -261 -35 -69 c-25 -50 -49 -79
-85 -106 -97 -73 36 -68 -1725 -68 -1755 0 -1627 -5 -1722 65 -57 42 -98 109
-115 189 -19 91 -17 448 2 514 16 53 59 99 107 114 38 11 100 -1 135 -28z
m494 -1011 l-19 -48 -111 -3 -111 -3 -10 26 c-5 14 -13 37 -16 50 l-6 25 146
0 146 0 -19 -47z m2469 33 c0 -7 -7 -30 -15 -50 l-16 -37 -110 3 -111 3 -19
48 -19 47 145 0 c117 0 145 -3 145 -14z"/>
<path d="M860 1705 c-20 -24 -15 -67 10 -87 37 -30 93 -3 93 46 0 37 -20 56
-58 56 -18 0 -38 -7 -45 -15z"/>
<path d="M1126 1704 c-17 -16 -21 -51 -8 -70 4 -6 17 -16 30 -23 49 -26 104
48 67 89 -22 24 -68 26 -89 4z"/>
<path d="M1846 1704 c-31 -31 -14 -85 31 -99 27 -7 73 32 73 63 0 44 -72 69
-104 36z"/>
<path d="M2104 1695 c-19 -29 -11 -60 20 -81 50 -32 104 24 77 82 -15 34 -74
34 -97 -1z"/>
<path d="M2824 1695 c-19 -29 -11 -60 21 -81 37 -24 85 6 85 53 0 53 -76 74
-106 28z"/>
<path d="M3091 1706 c-7 -8 -11 -30 -9 -48 4 -45 47 -68 83 -44 32 21 40 52
21 81 -19 29 -75 35 -95 11z"/>
</g>
</svg>
