<svg version="1.0" xmlns="http://www.w3.org/2000/svg"
viewBox="0 0 404.000000 304.000000">

<g transform="translate(0.000000,304.000000) scale(0.100000,-0.100000)">
<path d="M510 2891 c-67 -36 -99 -95 -100 -186 l0 -50 -98 0 c-93 0 -101 -2
-136 -29 -21 -16 -47 -47 -57 -70 -18 -39 -19 -86 -19 -1041 0 -1091 -2 -1059
57 -1167 37 -67 121 -143 200 -181 l68 -32 1580 -3 c869 -1 1595 0 1613 3 45
8 109 68 123 115 6 20 10 72 7 114 -3 74 -3 76 20 76 29 0 90 25 116 48 10 9
27 35 37 57 17 37 19 73 19 439 0 276 -4 411 -12 438 -14 48 -73 103 -125 117
-26 7 -400 11 -1160 11 l-1123 0 0 605 c0 522 -2 611 -15 642 -20 48 -41 71
-87 94 -35 18 -64 19 -455 19 -387 -1 -421 -2 -453 -19z m853 -102 c33 -18 37
-28 37 -96 0 -98 23 -93 -435 -93 -458 0 -435 -5 -435 93 0 67 4 78 35 95 28
16 768 17 798 1z m-975 -259 c17 -16 22 -32 22 -73 0 -50 -2 -53 -36 -72 -19
-10 -46 -38 -60 -60 -24 -41 -24 -44 -24 -304 0 -197 3 -270 14 -294 13 -32
78 -97 96 -97 6 0 10 -56 10 -138 l0 -139 -37 -24 c-20 -13 -46 -37 -57 -52
-20 -27 -21 -42 -24 -390 -2 -254 1 -375 9 -404 15 -56 68 -116 127 -145 47
-23 50 -23 407 -23 349 0 361 1 400 22 22 11 51 39 65 62 l25 40 136 1 136 0
24 -37 c31 -47 65 -72 115 -83 51 -12 457 -12 508 0 50 11 84 36 115 83 l24
37 139 0 c116 0 138 -2 138 -15 0 -8 18 -33 39 -54 56 -56 103 -63 379 -59
225 3 227 3 273 30 25 15 53 42 64 62 l20 36 78 0 c69 0 81 -3 102 -25 36 -35
36 -115 0 -150 l-24 -25 -1544 0 c-1515 0 -1546 0 -1609 20 -84 26 -147 80
-187 162 l-31 61 0 1018 0 1018 22 15 c34 24 119 21 146 -4z m1012 -507 l0
-473 -435 0 -435 0 0 35 0 35 80 0 c93 0 138 15 180 61 45 50 52 104 48 371
l-3 236 -30 44 c-41 58 -87 79 -191 86 l-84 5 0 36 0 36 435 0 435 0 0 -472z
m-830 274 c0 -1 -38 -40 -85 -87 l-85 -85 0 61 c0 47 5 68 21 88 18 23 27 26
85 26 35 0 64 -1 64 -3z m150 -100 l0 -62 -160 -160 -160 -160 0 71 0 71 153
155 c83 85 155 153 160 151 4 -2 7 -32 7 -66z m0 -304 c0 -67 0 -68 -47 -115
-47 -48 -47 -48 -115 -48 -37 0 -68 3 -68 6 0 9 213 223 223 223 4 1 7 -29 7
-66z m680 -904 l0 -440 -32 3 -33 3 -2 70 c-4 105 -11 132 -45 171 -53 61 -68
64 -267 64 l-179 0 -4 183 c-3 168 -5 185 -26 222 -40 69 -81 89 -189 93 l-93
4 0 34 0 34 435 0 435 0 0 -441z m1060 1 l0 -440 -34 0 -34 0 -4 93 c-5 106
-20 142 -75 184 l-36 28 -261 3 c-144 2 -275 0 -293 -3 -18 -3 -47 -18 -64
-32 -49 -42 -69 -95 -69 -190 l0 -83 -35 0 -35 0 0 440 0 440 470 0 470 0 0
-440z m1055 0 l0 -441 -35 3 -35 3 -3 80 c-3 105 -6 118 -44 160 -56 65 -59
65 -355 65 -259 0 -269 -1 -307 -23 -61 -34 -80 -75 -86 -187 l-5 -95 -35 0
-35 0 -3 438 -2 437 472 0 473 0 0 -440z m287 423 c17 -15 18 -41 18 -417 0
-221 -4 -406 -8 -412 -25 -38 -114 -46 -156 -13 l-26 20 0 400 c0 386 1 400
20 419 26 26 124 28 152 3z m-3172 -171 c0 -4 -52 -59 -115 -122 l-115 -115 0
75 0 74 47 48 c47 48 47 48 115 48 37 0 68 -3 68 -8z m-70 -386 l-160 -161 0
75 0 75 158 158 157 157 3 -72 3 -72 -161 -160z m186 -93 c17 -12 7 -25 -126
-162 -80 -81 -150 -149 -157 -150 -15 -1 -53 52 -53 75 0 11 67 86 153 172
l152 152 6 -36 c4 -21 15 -43 25 -51z m169 -173 l-160 -160 -75 0 -75 0 160
160 160 160 75 0 75 0 -160 -160z m945 15 c-157 -158 -158 -158 -159 -61 -1
47 1 50 76 127 l76 79 76 0 76 0 -145 -145z m391 124 l21 -21 -138 -139 -139
-139 -67 0 c-38 0 -68 3 -68 7 0 4 69 76 152 160 135 135 157 153 185 153 20
0 41 -8 54 -21z m799 13 c0 -14 -276 -283 -283 -276 -4 4 -7 35 -7 68 l0 61
77 77 78 78 67 0 c38 0 68 -3 68 -8z m248 -8 c12 -8 22 -20 22 -27 0 -6 -60
-71 -132 -144 l-133 -133 -75 0 -75 0 160 160 c168 169 184 178 233 144z
m-2078 -94 l0 -55 -77 -77 -78 -78 -67 0 c-38 0 -68 3 -68 7 0 4 62 70 137
145 93 93 140 133 145 125 4 -7 8 -37 8 -67z m1050 -140 c0 -38 -32 -70 -70
-70 -16 0 -30 3 -30 7 0 10 82 93 92 93 4 0 8 -13 8 -30z m1060 6 c0 -40 -36
-76 -78 -76 l-36 0 49 50 c27 28 53 50 57 50 4 0 8 -11 8 -24z"/>
</g>
</svg>
