<svg version="1.0" xmlns="http://www.w3.org/2000/svg"
viewBox="0 0 404.000000 304.000000">

<g transform="translate(0.000000,304.000000) scale(0.100000,-0.100000)">
<path d="M550 3027 c-52 -26 -50 24 -47 -1252 3 -1111 4 -1194 21 -1249 74
-246 263 -434 507 -503 60 -17 134 -18 1261 -18 l1197 0 23 23 23 23 3 465 3
465 -30 29 c-27 27 -35 30 -98 30 -66 0 -69 1 -86 30 -38 64 -43 65 -452 65
-338 0 -373 -2 -398 -18 -26 -17 -28 -17 -54 0 -24 16 -62 18 -371 21 -189 2
-363 -1 -386 -6 l-43 -9 9 43 c5 23 8 197 6 386 -3 309 -5 347 -21 371 -17 26
-17 28 0 54 16 25 18 60 18 398 0 409 -1 414 -65 452 -29 17 -30 20 -30 86 0
62 -3 71 -29 98 l-29 29 -454 0 c-343 0 -459 -3 -478 -13z m142 -1249 l3
-1173 23 -59 c32 -86 67 -140 127 -201 61 -60 115 -95 201 -127 l59 -23 1173
-3 1172 -2 0 -50 0 -50 -1158 0 c-1121 0 -1161 1 -1236 20 -111 28 -189 74
-277 160 -89 88 -141 175 -169 285 -19 76 -20 111 -20 1237 l0 1158 50 0 50 0
2 -1172z m758 1122 l0 -50 -335 0 -335 0 0 50 0 50 335 0 335 0 0 -50z m-570
-525 l0 -385 -50 0 -50 0 0 385 0 385 50 0 50 0 0 -385z m318 373 c7 -7 12
-41 12 -84 0 -97 -8 -104 -113 -104 -114 0 -127 10 -127 100 0 94 7 100 124
100 58 0 96 -4 104 -12z m334 -5 c17 -15 18 -40 18 -365 0 -335 -1 -349 -20
-368 -18 -18 -33 -20 -178 -20 -167 0 -182 -4 -182 -47 0 -36 35 -43 205 -43
142 0 155 -2 165 -19 6 -13 10 -145 10 -361 0 -216 -4 -348 -10 -361 -10 -18
-24 -19 -290 -19 l-280 0 0 378 0 378 43 10 c36 8 42 13 45 38 4 34 -10 46
-55 46 l-33 0 0 245 0 245 115 0 c131 0 163 11 195 63 16 26 20 50 20 125 l0
92 107 0 c85 0 110 -3 125 -17z m-652 -1223 l0 -380 -50 0 -50 0 0 380 0 380
50 0 50 0 0 -380z m2 -678 l3 -207 33 -67 c37 -76 82 -120 162 -157 53 -25 63
-26 263 -29 l207 -4 0 -49 0 -49 -197 0 c-209 0 -260 8 -342 50 -62 31 -142
110 -176 171 -47 87 -55 136 -55 352 l0 197 49 0 49 0 4 -208z m648 188 c19
-19 20 -33 20 -290 l0 -270 -151 0 -152 0 41 44 c79 86 68 145 -48 261 l-80
80 -59 0 c-48 0 -64 -5 -94 -28 l-37 -28 0 125 0 126 270 0 c257 0 271 -1 290
-20z m851 10 c17 -10 19 -23 19 -165 0 -170 7 -205 43 -205 43 0 47 15 47 182
0 145 2 160 20 178 19 19 33 20 367 20 308 0 348 -2 365 -17 15 -14 18 -32 18
-127 l0 -111 -89 3 c-103 4 -140 -9 -171 -61 -17 -27 -20 -51 -20 -149 l0
-118 -245 0 -245 0 0 33 c0 45 -12 59 -46 55 -25 -3 -30 -9 -38 -45 l-10 -43
-378 0 -378 0 0 280 c0 255 1 280 18 289 24 14 697 15 723 1z m1069 -425 l0
-335 -50 0 -50 0 0 335 0 335 50 0 50 0 0 -335z m-2263 93 c39 -38 63 -71 63
-84 0 -22 -60 -93 -95 -111 -11 -6 -29 -7 -40 -3 -30 11 -135 126 -135 146 0
10 21 40 47 66 64 65 82 64 160 -14z m2061 -10 c8 -8 12 -46 12 -104 0 -117
-6 -124 -100 -124 -90 0 -100 13 -100 127 0 105 7 113 104 113 43 0 77 -5 84
-12z m-848 -368 l0 -50 -380 0 -380 0 0 50 0 50 380 0 380 0 0 -50z m860 0 l0
-50 -385 0 -385 0 0 50 0 50 385 0 385 0 0 -50z"/>
</g>
</svg>
