<svg version="1.0" xmlns="http://www.w3.org/2000/svg"
viewBox="0 0 404.000000 304.000000">

<g transform="translate(0.000000,304.000000) scale(0.100000,-0.100000)">
<path d="M271 2623 c-18 -9 -45 -34 -60 -57 l-26 -40 0 -830 0 -831 26 -67
c77 -198 224 -334 414 -383 51 -13 232 -15 1392 -15 946 0 1347 3 1385 11 212
45 397 235 443 454 12 58 15 203 15 854 0 775 0 785 -21 828 -11 23 -35 53
-52 65 -31 22 -38 23 -292 23 -230 0 -264 -2 -292 -18 -59 -32 -106 -81 -135
-142 l-28 -60 0 -597 0 -598 -1020 0 -1019 0 -3 608 c-3 604 -3 607 -25 648
-33 61 -70 101 -122 132 l-46 27 -250 3 c-218 2 -254 0 -284 -15z m149 -388
l0 -305 -65 0 -65 0 0 285 c0 272 1 286 20 305 14 14 33 20 65 20 l45 0 0
-305z m366 286 c55 -25 92 -76 104 -143 6 -30 9 -142 8 -249 l-3 -194 -185 0
-185 0 -3 290 c-1 159 0 295 3 302 8 22 210 17 261 -6z m2734 -156 l5 -170 27
-9 c22 -8 32 -6 48 9 19 17 20 30 20 182 l0 163 45 0 c32 0 51 -6 65 -20 19
-19 20 -33 20 -305 l0 -285 -65 0 -65 0 0 43 c0 57 -27 85 -68 71 -23 -8 -28
-16 -32 -59 l-5 -50 -185 0 -185 0 0 237 0 236 30 44 c18 25 49 52 75 66 40
20 57 22 155 20 l110 -3 5 -170z m-3100 -845 l0 -300 -65 0 -65 0 0 300 0 300
65 0 65 0 0 -300z m480 0 l0 -300 -190 0 -190 0 0 300 0 300 190 0 190 0 0
-300z m2620 0 l0 -300 -190 0 -190 0 0 300 0 300 190 0 190 0 0 -300z m230 0
l0 -300 -65 0 -65 0 0 300 0 300 65 0 65 0 0 -300z m-3330 -498 c0 -107 17
-168 66 -239 67 -98 153 -140 309 -151 l100 -7 0 -60 0 -60 -82 -3 c-160 -6
-291 46 -392 154 -98 104 -130 193 -131 357 l0 97 65 0 65 0 0 -88z m475 -97
l0 -180 -77 -3 c-43 -2 -95 2 -116 8 -103 27 -167 117 -178 252 -4 42 -4 84
-1 92 6 14 29 16 189 14 l183 -3 0 -180z m715 0 l0 -185 -165 0 c-164 0 -165
0 -181 -25 -20 -30 -10 -63 23 -76 13 -5 92 -9 174 -9 l149 0 0 -65 0 -65
-305 0 -305 0 0 65 0 65 40 0 c27 0 47 7 60 20 42 42 12 90 -57 90 l-43 0 0
185 0 185 305 0 305 0 0 -185z m710 0 l0 -185 -300 0 -300 0 0 185 0 185 300
0 300 0 0 -185z m720 0 l0 -185 -305 0 -305 0 0 185 0 185 305 0 305 0 0 -185z
m473 92 c-1 -73 -6 -97 -28 -143 -48 -98 -126 -137 -263 -132 l-77 3 -3 170
c-1 93 0 175 3 182 3 11 44 13 187 11 l183 -3 -2 -88z m237 -4 c0 -54 -5 -117
-10 -140 -17 -74 -62 -155 -122 -218 -100 -107 -231 -159 -391 -153 l-82 3 0
60 0 60 100 7 c179 13 276 71 342 205 23 47 27 72 31 164 l5 109 63 0 64 0 0
-97z m-1430 -448 l0 -65 -300 0 -300 0 0 65 0 65 300 0 300 0 0 -65z m720 0
l0 -65 -305 0 -305 0 0 65 0 65 305 0 305 0 0 -65z"/>
</g>
</svg>
