<svg version="1.0" xmlns="http://www.w3.org/2000/svg"
 viewBox="0 0 404.000000 304.000000">

<g transform="translate(0.000000,304.000000) scale(0.100000,-0.100000)">
<path d="M735 2541 c-51 -23 -93 -65 -116 -116 -16 -34 -19 -67 -19 -235 0
-160 3 -200 15 -218 14 -19 14 -24 0 -51 -13 -26 -15 -96 -15 -498 0 -450 1
-469 20 -501 11 -18 31 -38 45 -44 l25 -11 0 -182 c0 -127 4 -185 12 -193 8
-8 53 -12 135 -12 l122 0 48 93 48 92 965 0 965 0 48 -92 48 -93 122 0 c82 0
127 4 135 12 8 8 12 66 12 193 l0 182 25 11 c14 6 34 26 45 44 19 32 20 51 20
501 0 402 -2 472 -15 498 -14 27 -14 32 0 51 12 18 15 58 15 218 0 168 -3 201
-19 235 -23 51 -65 93 -116 116 -38 18 -99 19 -1285 19 -1186 0 -1247 -1
-1285 -19z m285 -97 c0 -41 18 -64 50 -64 32 0 50 23 50 64 l0 26 140 0 140 0
0 -26 c0 -41 18 -64 50 -64 32 0 50 23 50 64 l0 26 140 0 140 0 0 -26 c0 -41
18 -64 50 -64 32 0 50 23 50 64 l0 26 140 0 140 0 0 -26 c0 -41 18 -64 50 -64
32 0 50 23 50 64 l0 26 140 0 140 0 0 -26 c0 -41 18 -64 50 -64 32 0 50 23 50
64 l0 26 140 0 140 0 0 -26 c0 -41 18 -64 50 -64 32 0 50 23 50 64 l0 26 113
0 c126 0 161 -13 197 -72 18 -30 20 -51 20 -205 0 -166 -1 -172 -22 -187 -20
-14 -161 -16 -1308 -16 -1147 0 -1288 2 -1308 16 -21 15 -22 21 -22 187 0 154
2 175 20 205 36 59 71 72 198 72 l112 0 0 -26z m2314 -560 c14 -13 16 -62 16
-380 l0 -364 -1330 0 -1330 0 0 364 c0 318 2 367 16 380 14 14 147 16 1314 16
1167 0 1300 -2 1314 -16z m16 -868 c0 -71 111 -66 -1330 -66 -1441 0 -1330 -5
-1330 66 l0 34 1330 0 1330 0 0 -34z m-92 -208 l3 -48 -1240 0 -1241 0 0 43
c0 24 3 47 7 50 3 4 560 6 1237 5 l1231 -3 3 -47z m-2318 -148 c0 -6 -9 -29
-20 -50 -20 -40 -21 -40 -80 -40 l-60 0 0 43 c0 24 3 47 7 50 11 12 153 8 153
-3z m2318 -42 l3 -48 -60 0 c-60 0 -61 0 -81 40 -11 21 -20 44 -20 50 0 7 27
10 78 8 l77 -3 3 -47z"/>
</g>
</svg>
