<svg version="1.0" xmlns="http://www.w3.org/2000/svg"
 viewBox="0 0 404.000000 304.000000">

<g transform="translate(0.000000,304.000000) scale(0.100000,-0.100000)">
<path d="M1468 2979 c-116 -28 -197 -132 -198 -254 0 -33 33 -282 74 -554 78
-521 77 -519 137 -564 14 -10 44 -21 67 -24 l42 -6 0 -73 0 -74 -83 0 c-145 0
-223 -39 -262 -132 -14 -35 -19 -38 -55 -38 l-40 0 0 170 0 170 43 0 c24 0 48
5 55 12 16 16 16 210 0 226 -9 9 -73 12 -225 12 -200 0 -213 -1 -223 -19 -15
-28 -13 -193 3 -214 10 -14 34 -17 137 -19 l125 -3 3 -195 c3 -226 0 -220 99
-220 60 0 64 -2 75 -27 24 -54 59 -91 108 -112 44 -19 68 -21 234 -21 l186 0
0 -95 c0 -109 4 -115 89 -115 l51 0 0 -94 0 -94 -167 -4 c-147 -3 -172 -6
-203 -23 -44 -26 -70 -77 -70 -138 0 -43 -3 -49 -27 -58 -61 -23 -112 -100
-113 -168 0 -52 37 -118 83 -149 87 -58 215 -23 258 71 44 98 1 210 -93 246
-25 9 -28 16 -28 54 0 79 5 82 194 85 l166 3 0 -81 c0 -76 -2 -84 -31 -120
-42 -52 -50 -118 -21 -183 60 -135 256 -138 321 -5 11 25 21 61 21 82 0 39
-28 103 -54 125 -12 10 -16 33 -16 98 l0 84 166 -3 c188 -3 194 -6 194 -84 0
-34 -4 -44 -21 -49 -29 -10 -87 -63 -105 -96 -18 -36 -18 -107 1 -152 40 -96
173 -134 260 -75 116 78 108 245 -15 308 -35 18 -37 22 -42 78 -3 33 -14 72
-23 86 -35 53 -65 61 -247 64 l-168 4 0 94 0 94 51 0 c85 0 89 6 89 115 l0 95
188 0 c159 0 193 3 227 19 46 20 102 79 111 116 6 24 10 25 73 25 104 0 100
-7 103 220 l3 195 130 5 130 5 0 120 0 120 -214 3 c-149 2 -218 -1 -227 -9
-10 -8 -14 -38 -14 -109 0 -54 3 -105 6 -114 4 -12 20 -16 55 -16 l49 0 0
-170 0 -170 -40 0 c-36 0 -41 3 -55 38 -39 93 -117 132 -262 132 l-83 0 0 74
0 73 42 6 c23 3 53 14 67 24 60 45 59 43 137 564 41 272 74 521 74 554 0 75
-32 147 -85 194 -78 68 -53 66 -645 68 -294 1 -552 -3 -572 -8z m1122 -91 c65
-33 103 -92 102 -160 0 -41 -72 -550 -138 -982 -4 -22 -17 -50 -30 -63 l-23
-23 -476 0 c-306 0 -483 4 -495 10 -11 6 -24 18 -29 28 -5 10 -41 233 -80 497
-39 264 -73 490 -75 503 -11 71 39 162 108 193 38 17 75 19 566 19 526 0 526
0 570 -22z m-1415 -1163 l0 -50 -150 0 -150 0 -3 39 c-6 68 -9 67 155 64 l148
-3 0 -50z m1990 0 l0 -50 -150 0 -150 0 -3 39 c-6 68 -9 67 155 64 l148 -3 0
-50z m-795 -220 l0 -75 -350 0 -350 0 0 75 0 75 350 0 350 0 0 -75z m283 -169
c54 -22 72 -51 72 -112 0 -47 -4 -57 -33 -86 l-32 -33 -641 0 -641 0 -35 39
c-33 35 -35 42 -31 87 6 54 27 84 73 105 45 20 1221 20 1268 0z m-463 -381 l0
-65 -170 0 -170 0 0 65 0 65 170 0 170 0 0 -65z m-140 -345 l0 -200 -30 0 -30
0 0 200 0 200 30 0 30 0 0 -200z m-469 -309 c48 -49 38 -125 -21 -156 -55 -28
-107 -13 -135 40 -55 101 74 197 156 116z m510 0 c46 -47 36 -121 -21 -154
-36 -21 -64 -21 -100 0 -88 52 -52 183 50 183 33 0 48 -6 71 -29z m502 9 c52
-41 44 -136 -14 -165 -36 -19 -63 -19 -99 0 -37 19 -50 43 -50 90 0 79 100
125 163 75z"/>
</g>
</svg>
