<svg version="1.0" xmlns="http://www.w3.org/2000/svg" viewBox="0 0 404.000000 304.000000">

<g transform="translate(0.000000,304.000000) scale(0.100000,-0.100000)">
<path d="M922 2829 c-71 -28 -144 -101 -171 -174 -20 -52 -21 -76 -21 -370 l0
-315 -40 -20 c-55 -28 -118 -93 -140 -144 -45 -100 -45 -94 115 -692 81 -302
156 -566 166 -586 41 -81 132 -143 226 -154 l49 -6 45 -87 44 -86 167 -3 168
-2 45 90 45 90 400 0 400 0 45 -90 45 -90 168 2 167 3 44 86 45 87 48 5 c97
12 185 72 227 155 10 20 83 276 162 567 157 583 163 616 122 706 -25 56 -87
120 -143 149 l-40 20 0 315 c0 297 -1 317 -21 372 -29 76 -96 143 -172 172
-58 21 -58 21 -1100 20 -1023 0 -1043 0 -1095 -20z m2180 -80 c48 -25 82 -59
112 -114 20 -38 21 -55 24 -346 l4 -307 -49 -7 c-95 -14 -175 -65 -218 -138
-13 -23 -44 -118 -69 -212 -25 -93 -57 -210 -70 -260 -14 -49 -44 -161 -67
-247 l-43 -158 -706 0 -706 0 -32 118 c-18 64 -63 234 -102 377 -38 143 -76
284 -85 312 -33 108 -119 184 -234 205 l-62 12 3 305 c3 294 4 308 25 346 33
60 53 81 103 109 l45 26 1043 0 c1037 0 1043 0 1084 -21z m-2176 -884 c26 -15
53 -43 68 -68 15 -25 68 -205 135 -457 61 -228 116 -425 121 -437 l10 -23 760
0 760 0 10 23 c5 12 60 209 121 437 67 252 120 432 135 457 26 45 86 86 142
98 80 17 179 -31 222 -107 43 -76 38 -109 -114 -668 -75 -278 -144 -521 -152
-542 -9 -20 -30 -50 -48 -67 -67 -64 -8 -61 -1078 -61 -1097 0 -1018 -5 -1089
78 -33 39 -44 73 -180 574 -105 390 -144 548 -144 588 1 93 60 171 153 201 43
14 120 2 168 -26z m579 -1545 l-25 -50 -118 0 -118 0 -22 45 c-12 25 -22 48
-22 50 0 3 74 5 165 5 l165 0 -25 -50z m1335 45 c0 -2 -10 -25 -22 -50 l-22
-45 -118 0 -118 0 -25 50 -25 50 165 0 c91 0 165 -2 165 -5z"/>
<path d="M1335 2409 c-5 -15 1 -29 21 -50 l28 -29 -29 -30 c-25 -26 -27 -33
-17 -55 15 -32 39 -32 74 2 l28 27 28 -27 c32 -31 44 -33 66 -11 21 21 20 27
-10 63 l-26 31 26 31 c29 35 31 40 14 57 -18 18 -49 14 -75 -10 l-23 -21 -23
21 c-30 29 -73 29 -82 1z"/>
<path d="M1922 2418 c-17 -17 -15 -22 14 -58 l27 -31 -20 -22 c-31 -34 -35
-45 -23 -67 15 -27 39 -25 72 7 l28 27 28 -27 c33 -32 57 -34 72 -7 12 22 8
33 -23 68 l-21 22 29 30 c24 25 27 34 19 48 -17 26 -53 27 -80 1 l-24 -22 -23
21 c-26 24 -57 28 -75 10z"/>
<path d="M2502 2418 c-17 -17 -15 -22 14 -57 l26 -31 -26 -31 c-30 -36 -31
-42 -10 -63 22 -22 34 -20 66 11 l28 27 28 -27 c35 -34 59 -34 74 -2 10 22 8
29 -17 55 l-29 30 29 30 c24 25 27 34 19 48 -17 26 -53 27 -80 1 l-24 -22 -23
21 c-26 24 -57 28 -75 10z"/>
<path d="M1632 2048 c-18 -18 -15 -29 15 -60 l27 -28 -21 -22 c-31 -35 -35
-46 -23 -68 15 -27 39 -25 72 7 l28 27 28 -27 c32 -31 44 -33 66 -11 21 21 20
27 -10 64 l-27 31 29 30 c23 24 26 33 18 47 -17 26 -53 27 -80 1 l-24 -22 -23
21 c-26 24 -57 28 -75 10z"/>
<path d="M2212 2048 c-18 -18 -15 -29 15 -60 l27 -28 -21 -22 c-31 -35 -35
-46 -23 -68 15 -27 39 -25 72 7 l28 27 28 -27 c33 -32 57 -34 72 -7 12 22 8
33 -23 68 l-21 22 29 30 c24 25 27 34 19 48 -17 26 -53 27 -80 1 l-24 -22 -23
21 c-26 24 -57 28 -75 10z"/>
<path d="M1342 1678 c-18 -18 -15 -30 14 -61 l25 -28 -25 -30 c-29 -34 -32
-49 -14 -67 18 -18 39 -14 68 13 l26 24 28 -24 c35 -30 62 -32 76 -5 12 22 8
33 -23 67 l-20 22 27 31 c21 25 24 35 16 51 -14 25 -48 24 -77 -3 l-23 -21
-23 21 c-26 24 -57 28 -75 10z"/>
<path d="M1922 1678 c-18 -18 -15 -29 15 -60 l27 -28 -21 -22 c-31 -35 -35
-46 -23 -68 15 -28 45 -25 74 7 l25 27 29 -27 c33 -32 57 -34 72 -7 12 22 8
33 -23 68 l-21 22 29 30 c24 25 27 34 19 48 -17 26 -53 27 -80 1 l-24 -22 -23
21 c-26 24 -57 28 -75 10z"/>
<path d="M2500 1671 c-8 -16 -5 -26 16 -51 l27 -31 -20 -22 c-31 -34 -35 -45
-23 -67 14 -27 41 -25 76 5 l28 24 26 -24 c32 -30 56 -32 70 -5 12 22 8 33
-22 66 -18 20 -18 21 7 50 28 32 30 45 13 62 -18 18 -49 14 -75 -10 l-23 -21
-23 21 c-29 27 -63 28 -77 3z"/>
</g>
</svg>
