<svg version="1.0" xmlns="http://www.w3.org/2000/svg"
 viewBox="0 0 404.000000 304.000000">

<g transform="translate(0.000000,304.000000) scale(0.100000,-0.100000)">
<path d="M1220 3027 c-49 -16 -133 -102 -148 -153 -17 -59 -17 -2648 0 -2706
6 -22 31 -62 55 -88 75 -84 33 -80 883 -80 850 0 808 -4 883 80 24 26 49 66
55 88 17 58 17 2647 0 2706 -16 55 -99 138 -154 154 -56 16 -1522 15 -1574 -1z
m1576 -103 c15 -11 37 -33 48 -48 21 -27 21 -31 21 -1209 0 -1164 0 -1183 -20
-1216 -11 -18 -36 -42 -55 -52 -33 -18 -72 -19 -780 -19 -708 0 -747 1 -780
19 -19 10 -44 34 -55 52 -20 33 -20 55 -23 1179 -2 630 0 1164 3 1188 8 52 53
108 99 121 18 6 342 9 773 8 732 -2 742 -2 769 -23z m-1599 -2614 c37 -20 57
-20 813 -20 756 0 776 0 813 20 20 11 40 20 43 20 4 0 4 -32 2 -71 -8 -113
-54 -159 -167 -167 l-71 -5 0 29 c0 37 -25 74 -50 74 -25 0 -50 -37 -50 -73
l0 -28 -92 3 -93 3 -3 37 c-4 42 -29 63 -62 53 -19 -6 -25 -19 -32 -70 -3 -18
-12 -20 -96 -23 l-92 -3 0 28 c0 36 -25 73 -50 73 -25 0 -50 -37 -50 -73 l0
-28 -92 3 -93 3 -3 37 c-4 42 -29 63 -62 53 -19 -6 -25 -19 -32 -70 -3 -18
-12 -20 -96 -23 l-92 -3 0 28 c0 36 -25 73 -50 73 -25 0 -50 -37 -50 -74 l0
-29 -71 5 c-113 8 -159 54 -167 167 -2 39 -2 71 2 71 3 0 23 -9 43 -20z"/>
<path d="M1462 2694 c-25 -17 -29 -46 -7 -64 12 -10 12 -15 -1 -35 -31 -47 15
-92 66 -65 16 9 25 9 33 1 35 -35 92 12 68 56 -7 15 -7 29 2 52 10 28 9 33
-11 54 -21 21 -24 21 -51 6 -24 -14 -30 -14 -46 -3 -24 17 -26 17 -53 -2z"/>
<path d="M1938 2699 c-21 -12 -24 -59 -6 -77 9 -9 9 -15 0 -24 -28 -28 -7 -78
33 -78 12 0 25 4 31 10 6 6 20 6 41 -2 25 -9 35 -9 47 1 19 16 21 52 4 69 -9
9 -9 15 0 24 20 20 15 66 -9 78 -16 9 -26 8 -45 -5 -22 -14 -27 -14 -46 0 -26
18 -27 18 -50 4z"/>
<path d="M2412 2694 c-25 -17 -29 -46 -7 -64 12 -10 12 -15 -1 -35 -31 -47 15
-92 66 -65 16 9 25 9 33 1 15 -15 50 -14 65 1 16 16 15 51 0 66 -10 10 -10 17
0 32 17 28 15 44 -9 66 -19 17 -22 17 -48 3 -24 -14 -30 -14 -46 -3 -24 17
-26 17 -53 -2z"/>
<path d="M1692 2218 c-15 -15 -15 -51 0 -66 9 -9 9 -17 -1 -36 -26 -49 17 -93
62 -63 19 12 25 12 44 0 41 -27 87 20 60 61 -12 18 -12 24 0 43 30 45 -14 88
-63 62 -19 -10 -27 -10 -36 -1 -15 15 -51 15 -66 0z"/>
<path d="M2166 2211 c-16 -17 -16 -22 -3 -47 13 -24 13 -31 1 -50 -28 -41 18
-88 59 -61 19 12 25 12 44 0 45 -30 90 17 63 67 -9 16 -9 25 -1 33 15 15 14
50 -1 65 -15 15 -50 16 -65 1 -8 -8 -17 -8 -31 0 -30 16 -47 14 -66 -8z"/>
<path d="M1462 1744 c-25 -17 -29 -46 -7 -64 12 -10 12 -15 -2 -36 -13 -20
-14 -30 -5 -49 12 -27 40 -32 74 -14 14 8 23 8 31 0 16 -16 53 -13 68 5 10 12
10 22 1 46 -8 21 -8 36 0 53 21 46 -19 84 -64 61 -20 -11 -28 -11 -43 0 -24
17 -26 17 -53 -2z"/>
<path d="M1943 1749 c-26 -9 -32 -56 -11 -77 9 -9 9 -15 0 -24 -28 -28 -7 -78
33 -78 12 0 26 5 33 12 9 9 15 9 24 0 7 -7 21 -12 33 -12 12 0 26 5 33 12 7 7
12 21 12 33 0 12 -5 26 -12 33 -9 9 -9 15 0 24 20 20 15 66 -9 78 -16 9 -26 8
-45 -5 -21 -13 -27 -14 -46 -1 -16 10 -30 11 -45 5z"/>
<path d="M2410 1740 c-24 -24 -25 -43 -5 -60 12 -10 12 -15 -2 -36 -13 -20
-14 -30 -5 -49 12 -27 40 -32 74 -14 14 8 23 8 31 0 16 -16 53 -13 68 5 10 12
10 22 1 46 -8 21 -8 36 0 53 21 46 -19 84 -64 61 -20 -11 -28 -11 -43 0 -25
18 -31 18 -55 -6z"/>
<path d="M1696 1264 c-19 -18 -21 -45 -4 -62 9 -9 9 -17 -1 -36 -26 -49 17
-93 62 -63 19 13 25 12 45 -1 19 -13 25 -13 47 2 28 19 31 34 11 61 -12 16
-12 22 1 42 30 45 -14 89 -63 62 -19 -10 -27 -10 -36 -1 -17 17 -44 15 -62 -4z"/>
<path d="M2164 1255 c-15 -22 -15 -27 -1 -48 12 -19 12 -25 0 -43 -27 -41 19
-88 60 -61 19 12 25 12 44 0 45 -30 90 17 63 67 -9 16 -9 25 -1 33 15 15 14
50 -1 65 -15 15 -50 16 -65 1 -8 -8 -17 -8 -31 0 -32 17 -50 13 -68 -14z"/>
<path d="M1448 775 c-8 -19 -8 -28 2 -40 10 -12 10 -21 0 -44 -22 -55 18 -89
72 -60 14 8 23 8 31 0 16 -16 53 -13 68 5 10 12 10 22 2 45 -8 21 -8 37 0 58
18 49 -23 78 -73 51 -13 -7 -21 -7 -25 0 -3 5 -20 10 -36 10 -22 0 -32 -7 -41
-25z"/>
<path d="M1932 788 c-7 -7 -12 -21 -12 -33 0 -12 5 -26 12 -33 9 -9 9 -15 0
-24 -28 -28 -7 -78 33 -78 12 0 26 5 32 11 8 8 16 7 30 -2 12 -7 31 -9 46 -5
21 5 27 12 27 34 0 15 -5 33 -12 40 -9 9 -9 15 0 24 7 7 12 25 12 40 0 22 -6
29 -27 34 -15 4 -34 2 -46 -5 -14 -9 -22 -10 -30 -2 -15 15 -50 14 -65 -1z"/>
<path d="M2398 775 c-9 -21 -8 -28 7 -45 16 -18 16 -20 1 -35 -19 -19 -20 -29
-6 -56 12 -21 41 -25 72 -8 14 8 23 8 31 0 16 -16 53 -13 68 5 10 12 10 22 2
45 -8 21 -8 37 0 58 18 49 -23 78 -73 51 -13 -7 -21 -7 -25 0 -3 5 -20 10 -36
10 -22 0 -32 -7 -41 -25z"/>
</g>
</svg>
