<svg version="1.0" xmlns="http://www.w3.org/2000/svg"
 viewBox="0 0 404.000000 304.000000">

<g transform="translate(0.000000,304.000000) scale(0.100000,-0.100000)">
<path d="M612 3033 c-13 -3 -41 -22 -62 -43 -48 -48 -52 -71 -48 -304 3 -167
4 -179 23 -192 18 -12 24 -11 43 2 21 15 22 20 22 213 0 185 1 199 20 219 21
22 22 22 425 22 386 0 407 -1 442 -20 21 -11 45 -20 53 -20 8 0 32 9 53 20 35
19 56 20 437 20 381 0 402 -1 437 -20 21 -11 45 -20 53 -20 8 0 32 9 53 20 35
19 56 20 440 20 392 0 404 -1 425 -20 l22 -21 0 -1242 0 -1242 -256 0 -257 0
-8 -23 c-6 -17 -4 -27 11 -42 19 -19 34 -20 249 -20 274 0 261 6 261 -125 0
-135 35 -125 -445 -125 -386 0 -407 1 -442 20 -47 25 -59 25 -106 0 -35 -19
-56 -20 -437 -20 -381 0 -402 1 -437 20 -21 11 -45 20 -53 20 -8 0 -32 -9 -53
-20 -35 -19 -56 -20 -442 -20 -481 0 -445 -10 -445 123 0 59 5 89 16 105 l15
22 417 0 c351 -1 420 -3 436 -15 25 -19 87 -19 112 0 29 22 839 22 868 0 25
-19 87 -19 112 0 14 10 48 14 127 15 93 0 110 3 127 20 24 24 25 34 4 54 -12
13 -39 16 -132 16 -99 0 -122 -3 -149 -20 -33 -20 -33 -20 -65 0 -32 19 -52
20 -458 20 -405 0 -426 -1 -457 -20 -33 -19 -33 -19 -67 1 -33 19 -49 20 -470
17 l-436 -3 0 976 c0 745 -3 978 -12 987 -16 16 -53 15 -67 -2 -8 -10 -11
-310 -9 -1147 3 -1091 4 -1135 22 -1162 10 -15 33 -38 50 -50 31 -22 32 -22
466 -22 405 0 438 1 464 18 26 18 28 18 54 0 25 -17 58 -18 462 -18 402 0 437
1 461 18 26 17 28 17 67 -3 39 -20 51 -21 463 -18 l424 3 34 24 c18 13 42 42
52 65 18 39 19 97 19 1426 0 1329 -1 1387 -19 1426 -10 23 -34 52 -52 65 l-34
24 -424 3 c-409 3 -425 2 -462 -17 l-39 -21 -39 21 c-37 19 -53 20 -462 17
-383 -3 -426 -5 -450 -20 -24 -17 -27 -17 -64 2 -37 19 -58 20 -450 19 -225
-1 -420 -4 -433 -6z"/>
<path d="M1067 2503 c-13 -12 -7 -60 8 -73 20 -16 19 -27 -5 -57 -15 -20 -17
-29 -9 -45 16 -30 38 -33 70 -9 l29 22 29 -22 c23 -17 32 -19 50 -10 25 14 28
53 6 71 -8 7 -15 18 -15 25 0 7 7 18 15 25 20 17 19 66 -1 74 -26 10 -40 7
-64 -14 l-23 -20 -22 20 c-21 20 -55 26 -68 13z"/>
<path d="M1933 2503 c-18 -7 -16 -58 2 -73 8 -7 15 -18 15 -25 0 -7 -7 -18
-15 -25 -22 -18 -19 -57 6 -71 18 -9 27 -7 50 10 l29 22 29 -22 c32 -24 54
-21 70 9 8 16 6 25 -9 45 -25 31 -25 31 1 66 41 55 -17 97 -68 49 l-23 -21
-23 21 c-23 22 -39 25 -64 15z"/>
<path d="M2793 2503 c-18 -7 -16 -58 2 -73 8 -7 15 -18 15 -25 0 -7 -7 -18
-15 -25 -22 -18 -19 -57 6 -71 18 -9 27 -7 50 10 l29 22 29 -22 c32 -24 54
-21 70 9 8 16 6 25 -9 45 -24 30 -25 41 -4 57 9 8 14 25 12 44 -4 39 -39 48
-72 17 l-23 -21 -23 20 c-23 20 -42 24 -67 13z"/>
<path d="M1070 1760 c-21 -21 -18 -42 8 -72 13 -16 13 -20 0 -35 -50 -58 -2
-111 60 -67 21 15 25 15 42 -1 10 -9 30 -15 47 -13 22 2 29 9 31 31 2 17 -4
37 -13 47 -16 17 -16 21 -1 42 44 62 -9 110 -66 60 -16 -13 -20 -13 -35 0 -31
26 -52 29 -73 8z"/>
<path d="M1937 1768 c-22 -12 -22 -56 0 -80 15 -17 15 -19 -1 -37 -10 -11 -16
-31 -14 -48 2 -22 9 -29 31 -31 17 -2 37 4 47 13 17 16 21 16 42 1 31 -22 65
-20 79 5 9 18 7 27 -10 50 l-22 29 22 29 c17 23 19 32 10 50 -16 30 -52 31
-83 4 -16 -14 -20 -14 -35 -1 -26 22 -47 27 -66 16z"/>
<path d="M2797 1768 c-21 -11 -22 -47 -1 -76 15 -21 15 -25 -1 -42 -9 -10 -15
-30 -13 -47 2 -23 8 -29 34 -31 19 -2 36 3 44 12 16 20 27 20 46 1 21 -20 61
-19 72 3 11 20 6 40 -16 65 -13 15 -13 19 0 35 26 30 29 51 8 72 -21 21 -42
18 -72 -8 -16 -13 -20 -13 -35 0 -26 22 -47 27 -66 16z"/>
<path d="M1070 1020 c-21 -21 -18 -46 8 -67 15 -12 13 -23 -12 -58 -33 -46 23
-87 66 -48 17 15 20 15 51 -2 46 -24 71 -17 75 21 2 19 -3 36 -12 44 -20 16
-20 34 -1 50 22 18 19 57 -6 71 -18 9 -27 7 -50 -11 l-30 -21 -26 20 c-32 26
-38 26 -63 1z"/>
<path d="M1938 1029 c-22 -12 -23 -52 -3 -69 19 -16 19 -34 -1 -50 -9 -8 -14
-25 -12 -44 4 -38 28 -45 73 -20 31 16 34 16 50 1 23 -24 62 -21 76 4 9 18 7
27 -10 50 l-21 28 21 35 20 35 -20 20 c-26 26 -32 26 -65 0 l-26 -20 -26 20
c-30 24 -32 24 -56 10z"/>
<path d="M2798 1029 c-22 -12 -23 -52 -3 -69 8 -7 15 -18 15 -25 0 -7 -7 -18
-15 -25 -8 -7 -15 -25 -15 -41 0 -40 40 -50 80 -21 28 21 28 21 46 1 27 -30
68 -22 72 14 2 17 -4 37 -14 48 -16 17 -16 21 -1 37 27 31 26 67 -4 83 -18 9
-27 7 -50 -11 l-30 -21 -26 20 c-29 24 -31 24 -55 10z"/>
</g>
</svg>
