<svg version="1.0" xmlns="http://www.w3.org/2000/svg"
 viewBox="0 0 404.000000 304.000000">

<g transform="translate(0.000000,304.000000) scale(0.100000,-0.100000)">
<path d="M970 2835 c-108 -30 -216 -128 -257 -235 -17 -42 -18 -119 -21 -1059
-2 -908 -1 -1020 14 -1070 28 -97 80 -167 164 -221 96 -62 64 -60 1186 -60
916 0 1024 2 1038 16 12 11 16 36 16 95 l0 79 104 0 c110 0 136 9 136 49 0 32
-24 40 -131 43 l-104 3 0 95 0 95 104 3 c107 3 131 11 131 43 0 40 -26 49
-136 49 l-104 0 0 95 0 95 104 0 c110 0 136 9 136 49 0 32 -24 40 -131 43
l-104 3 0 95 0 95 104 3 c107 3 131 11 131 43 0 40 -26 49 -136 49 l-104 0 0
95 0 95 104 0 c110 0 136 9 136 49 0 32 -24 40 -131 43 l-104 3 0 95 0 95 104
3 c107 3 131 11 131 43 0 40 -26 49 -136 49 l-104 0 0 95 0 95 104 0 c110 0
136 9 136 49 0 32 -24 40 -131 43 l-104 3 0 95 0 95 104 3 c107 3 131 11 131
43 0 40 -26 49 -136 49 l-104 0 0 58 c0 32 -5 63 -12 70 -9 9 -211 12 -842 13
l-831 0 -40 62 c-90 140 -258 205 -415 162z m192 -96 c87 -22 169 -118 188
-218 10 -53 15 -1691 5 -1691 -2 0 -28 18 -57 40 -60 46 -157 80 -228 80 -71
0 -168 -34 -228 -80 -29 -22 -55 -40 -57 -40 -3 0 -5 370 -5 823 0 892 1 899
55 977 76 110 185 146 327 109z m1856 -1336 l-3 -1118 -842 -3 c-464 -1 -843
1 -843 5 0 3 7 15 17 25 15 17 50 18 684 18 594 0 669 2 683 16 9 8 16 23 16
32 0 36 22 93 47 123 30 36 94 68 135 69 61 0 58 -46 58 830 0 892 6 822 -74
834 -84 13 -149 78 -162 162 -12 80 38 74 -660 74 l-624 0 0 25 0 25 785 0
785 0 -2 -1117z m-362 925 c23 -71 101 -149 172 -172 l52 -18 0 -736 0 -737
-51 -19 c-84 -29 -153 -104 -183 -199 -5 -16 -43 -17 -614 -17 l-609 0 13 52
c8 29 14 60 14 70 0 17 24 18 433 18 244 0 438 4 446 9 8 6 21 38 28 72 23
114 88 179 198 200 33 7 66 19 73 27 18 24 18 1021 -1 1046 -8 11 -34 22 -66
27 -110 17 -181 86 -204 198 -7 31 -16 62 -20 69 -6 9 -107 12 -448 12 l-439
0 0 75 0 75 594 0 594 0 18 -52z m-382 -240 c30 -101 125 -194 224 -221 l42
-11 0 -456 0 -455 -58 -17 c-98 -29 -184 -121 -212 -225 l-11 -43 -404 0 -405
0 0 740 0 740 404 0 405 0 15 -52z m-1141 -1242 c136 -32 220 -137 220 -276 0
-288 -383 -393 -528 -145 -98 166 0 387 188 425 59 11 56 11 120 -4z"/>
<path d="M995 741 c-154 -71 -150 -280 7 -346 47 -19 89 -19 136 0 160 67 160
283 0 350 -49 20 -94 19 -143 -4z m111 -86 c77 -32 77 -138 -1 -170 -31 -14
-39 -14 -70 0 -50 20 -71 71 -51 120 10 23 27 41 48 50 41 18 33 18 74 0z"/>
</g>
</svg>
