<svg version="1.0" xmlns="http://www.w3.org/2000/svg"
 viewBox="0 0 404.000000 304.000000">

<g transform="translate(0.000000,304.000000) scale(0.100000,-0.100000)">
<path d="M140 2575 l0 -55 90 0 90 0 0 -60 0 -60 -90 0 -90 0 0 -55 0 -55 90
0 90 0 0 -65 0 -65 -90 0 -90 0 0 -55 0 -55 90 0 90 0 0 -60 0 -60 -90 0 -90
0 0 -55 0 -55 90 0 90 0 0 -65 0 -65 -90 0 -90 0 0 -55 0 -55 90 0 90 0 0 -60
0 -60 -90 0 -90 0 0 -55 0 -55 90 0 90 0 0 -65 0 -65 -90 0 -90 0 0 -55 0 -55
90 0 90 0 0 -60 0 -60 -90 0 -90 0 0 -55 0 -55 90 0 90 0 0 -65 0 -65 -90 0
-90 0 0 -55 0 -55 90 0 90 0 0 -60 0 -60 -90 0 -90 0 0 -55 0 -55 1880 0 1880
0 0 55 0 55 -90 0 -90 0 0 60 0 60 90 0 90 0 0 55 0 55 -90 0 -90 0 0 65 0 65
90 0 90 0 0 55 0 55 -90 0 -90 0 0 60 0 60 90 0 90 0 0 55 0 55 -90 0 -90 0 0
65 0 65 90 0 90 0 0 55 0 55 -90 0 -90 0 0 60 0 60 90 0 90 0 0 55 0 55 -90 0
-90 0 0 65 0 65 90 0 90 0 0 55 0 55 -90 0 -90 0 0 60 0 60 90 0 90 0 0 55 0
55 -90 0 -90 0 0 65 0 65 90 0 90 0 0 55 0 55 -90 0 -90 0 0 60 0 60 90 0 90
0 0 55 0 55 -1880 0 -1880 0 0 -55z m3470 -1055 l0 -1000 -1590 0 -1590 0 0
1000 0 1000 1590 0 1590 0 0 -1000z"/>
<path d="M1607 2003 l-407 -407 -90 89 -90 90 -128 -128 -127 -127 127 -127
128 -128 90 90 90 89 404 -404 c223 -223 410 -405 416 -405 6 0 193 182 416
405 l404 404 90 -89 90 -90 128 128 127 127 -127 127 -128 128 -90 -90 -89
-89 -407 407 c-224 224 -410 407 -413 407 -4 0 -190 -183 -414 -407z m788
-113 l370 -370 -373 -373 -372 -372 -372 372 -373 373 370 370 c203 203 372
370 375 370 3 0 172 -167 375 -370z m-1317 -324 l43 -45 -42 -45 c-23 -25 -47
-46 -53 -46 -7 0 -32 20 -56 45 l-44 45 44 45 c24 25 49 45 55 45 6 0 30 -20
53 -44z m1992 -1 l44 -45 -44 -45 c-24 -25 -49 -45 -55 -45 -15 0 -85 75 -85
91 0 16 70 89 85 89 6 0 31 -20 55 -45z"/>
<path d="M1745 1790 l-270 -270 273 -273 272 -272 272 272 273 273 -270 270
c-148 148 -272 270 -275 270 -3 0 -127 -122 -275 -270z m475 -75 l195 -195
-198 -198 -197 -197 -197 197 -198 198 195 195 c107 107 197 195 200 195 3 0
93 -88 200 -195z"/>
<path d="M560 1755 l0 -645 50 0 50 0 0 470 0 469 118 3 117 3 3 118 3 117
439 0 440 0 0 55 0 55 -610 0 -610 0 0 -645z m230 470 l0 -66 -62 3 -63 3 -3
49 c-5 72 -1 76 68 76 l60 0 0 -65z"/>
<path d="M2260 2345 l0 -55 440 0 439 0 3 -117 3 -118 168 -3 167 -2 0 175 0
175 -610 0 -610 0 0 -55z m1115 -120 l0 -60 -62 -3 -63 -3 0 66 0 66 63 -3 62
-3 0 -60z"/>
<path d="M2610 2105 l0 -55 55 0 55 0 0 55 0 55 -55 0 -55 0 0 -55z"/>
<path d="M2842 2108 l3 -53 58 -3 57 -3 0 56 0 55 -61 0 -60 0 3 -52z"/>
<path d="M3380 1460 l0 -469 -117 -3 -118 -3 -3 -117 -3 -118 -439 0 -440 0 0
-55 0 -55 610 0 610 0 0 645 0 645 -50 0 -50 0 0 -470z m-5 -645 l0 -60 -62
-3 -63 -3 0 66 0 66 63 -3 62 -3 0 -60z"/>
<path d="M560 815 l0 -175 610 0 610 0 0 55 0 55 -440 0 -439 0 -3 118 -3 117
-167 3 -168 2 0 -175z m230 0 l0 -66 -62 3 -63 3 -3 49 c-5 72 -1 76 68 76
l60 0 0 -65z"/>
<path d="M1080 935 l0 -55 61 0 60 0 -3 53 -3 52 -57 3 -58 3 0 -56z"/>
<path d="M1320 935 l0 -55 55 0 55 0 0 55 0 55 -55 0 -55 0 0 -55z"/>
</g>
</svg>
